<?xml version="1.0" encoding="UTF-8" standalone="no"?>
<!-- Created with Inkscape (http://www.inkscape.org/) -->

<svg
   version="1.1"
   id="svg50282"
   width="1066.6667"
   height="1066.6667"
   viewBox="0 0 1066.6667 1066.6667"
   sodipodi:docname="heart-smiley-icon-pdv.svg"
   inkscape:version="1.2 (dc2aedaf03, 2022-05-15)"
   xmlns:inkscape="http://www.inkscape.org/namespaces/inkscape"
   xmlns:sodipodi="http://sodipodi.sourceforge.net/DTD/sodipodi-0.dtd"
   xmlns="http://www.w3.org/2000/svg"
   xmlns:svg="http://www.w3.org/2000/svg">
  <defs
     id="defs50286">
    <clipPath
       clipPathUnits="userSpaceOnUse"
       id="clipPath50298">
      <path
         d="M 0,0 H 800 V 800 H 0 Z"
         id="path50296" />
    </clipPath>
    <linearGradient
       x1="0"
       y1="0"
       x2="1"
       y2="0"
       gradientUnits="userSpaceOnUse"
       gradientTransform="matrix(800,-800,-800,-800,0,800)"
       spreadMethod="pad"
       id="linearGradient50308">
      <stop
         style="stop-opacity:1;stop-color:#f2f1f1"
         offset="0"
         id="stop50304" />
      <stop
         style="stop-opacity:1;stop-color:#b9b8b8"
         offset="1"
         id="stop50306" />
    </linearGradient>
    <clipPath
       clipPathUnits="userSpaceOnUse"
       id="clipPath50326">
      <path
         d="M 271.204,579.311 H 800 V 0 H 271.204 Z"
         id="path50324" />
    </clipPath>
    <clipPath
       clipPathUnits="userSpaceOnUse"
       id="clipPath50346">
      <path
         d="M 143.472,588.363 H 400.106 V 121.138 H 143.472 Z"
         id="path50344" />
    </clipPath>
    <clipPath
       clipPathUnits="userSpaceOnUse"
       id="clipPath50386">
      <path
         d="m -535.1826,480.3174 h 799.99997 v -800 H -535.1826 Z"
         id="path50388"
         style="stroke-width:0.999998" />
    </clipPath>
  </defs>
  <sodipodi:namedview
     id="namedview50284"
     pagecolor="#ffffff"
     bordercolor="#000000"
     borderopacity="0.25"
     inkscape:showpageshadow="2"
     inkscape:pageopacity="0.0"
     inkscape:pagecheckerboard="0"
     inkscape:deskcolor="#d1d1d1"
     showgrid="false"
     inkscape:zoom="0.7846874"
     inkscape:cx="533.3334"
     inkscape:cy="432.01917"
     inkscape:window-width="1920"
     inkscape:window-height="1017"
     inkscape:window-x="-8"
     inkscape:window-y="-8"
     inkscape:window-maximized="1"
     inkscape:current-layer="g50290">
    <inkscape:page
       x="0"
       y="0"
       id="page50288"
       width="1066.6667"
       height="1066.6667" />
  </sodipodi:namedview>
  <g
     id="g50290"
     inkscape:groupmode="layer"
     inkscape:label="Page 1"
     transform="matrix(1.3333333,0,0,-1.3333333,0,1066.6667)">
    <g
       id="g50292">
      <g
         id="g50294"
         clip-path="url(#clipPath50298)">
        <g
           id="g50300">
          <g
             id="g50302">
            <path
               d="M 0,0 H 800 V 800 H 0 Z"
               style="fill:url(#linearGradient50308);stroke:none"
               id="path50310" />
          </g>
        </g>
      </g>
    </g>
    <g
       id="g50336"
       transform="translate(535.1826,319.6826)"
       clip-path="url(#clipPath50386)">
      <path
         d="m 0,0 c -33.768,-42.774 -81.812,-82.199 -135.129,-82.199 -53.317,0 -101.362,39.425 -135.13,82.199 -4.077,5.165 2.636,11.925 7.825,7.881 38.155,-29.739 81.431,-58.994 127.305,-58.994 45.873,0 89.15,29.255 127.304,58.994 C -2.648,11.915 4.08,5.169 0,0 m -235.755,174.732 c 15.236,0 27.587,-18.913 27.587,-42.242 0,-23.329 -12.351,-42.241 -27.587,-42.241 -15.235,0 -27.586,18.912 -27.586,42.241 0,23.329 12.351,42.242 27.586,42.242 m 196.763,0 c 15.236,0 27.587,-18.913 27.587,-42.242 0,-23.329 -12.351,-42.241 -27.587,-42.241 -15.235,0 -27.586,18.912 -27.586,42.241 0,23.329 12.351,42.242 27.586,42.242 m 86.154,81.034 c -132.086,48.487 -182.345,-55.173 -182.345,-55.173 0,0 -50.258,103.66 -182.344,55.173 -117.77,-43.232 -121.168,-263.152 182.344,-454.311 309.4,194.867 296.577,412.377 182.345,454.311"
         style="fill:#be1e2d;fill-opacity:1;fill-rule:nonzero;stroke:none"
         id="path50338" />
    </g>
  </g>
</svg>
